<?xml version="1.0" encoding="utf-8"?>
<!-- Generator: Adobe Illustrator 24.1.1, SVG Export Plug-In . SVG Version: 6.00 Build 0)  -->
<svg version="1.1" id="Layer_5" xmlns="http://www.w3.org/2000/svg" xmlns:xlink="http://www.w3.org/1999/xlink" x="0px" y="0px"
	 viewBox="0 0 512 512" style="enable-background:new 0 0 512 512;" xml:space="preserve">
<style type="text/css">
	.st0{fill:#A7413F;}
</style>
<path class="st0" d="M492.8,393.6C500,384,504,372,504,360v-88c0-13.2-10.8-24-24-24c-3.2,0-6.2,0.6-8.9,1.8
	c-2.8-10.2-12-17.8-23.1-17.8c-6.2,0-11.7,2.4-16,6.2c-4.3-3.8-9.8-6.2-16-6.2c-2.8,0-5.5,0.6-8,1.5v-22.2l8.9-9.2
	c1.9-0.7,3.8-1.5,5.6-2.3l14,6.7l41.9-41.9l-6.7-14c0.6-1.2,1.1-2.5,1.6-3.8l14.6-5.2V82.3l-14.6-5.2c-0.5-1.3-1-2.5-1.6-3.8l6.7-14
	l-41.9-41.9l-14,6.7c-1.2-0.6-2.5-1.1-3.8-1.6L413.7,8h-59.3l-5.2,14.6c-1.3,0.5-2.5,1-3.8,1.6l-14-6.7l-41.9,41.9l6.7,14
	c-0.6,1.2-1.1,2.5-1.6,3.8L280,82.3v59.3l14.6,5.2c0.5,1.3,1,2.5,1.6,3.8l-6.7,14l41.9,41.9l14-6.7c1.9,0.8,3.8,1.6,5.6,2.3l9,9.2
	v54.8c-10.7-11.3-26-18.4-43.1-18.4c-11.5,0-20.9,9.4-20.9,20.9c0,3.2,0.8,6.5,2.2,9.4l9.3,18.6c2.9,5.9,4.5,12.4,4.5,18.9v32.9
	c0,8.6,2,17.2,5.8,24.9l18.2,36.6v15.6c-9.3,3.3-16,12.1-16,22.5v8h-40V216h-48v240h-16V248h-48v208h-16V280h-48v176H88V198.9
	c13.8-3.6,24-16,24-30.9v-14.3c0-5.4,2.6-10.3,6.9-13.1c20.7-13.3,33.1-36,33.1-60.6c0-20.5-8.8-40.1-24-53.7
	C112.7,12.6,92.1,6.2,71.6,8.5c-32.4,3.7-58.9,29.8-63,62.1c-3.6,28.1,8.9,54.9,32.7,70.1c4.2,2.6,6.7,7.8,6.7,13.3v14
	c0,14.9,10.2,27.3,24,30.9V472h248v32h176v-56c0-10.4-6.7-19.2-16-22.5v-14.8L492.8,393.6z M49.9,127.2
	c-18.5-11.8-28.2-32.7-25.4-54.6c3.2-25.1,23.8-45.4,49-48.2c2.2-0.3,4.4-0.4,6.6-0.4c13.8,0,26.8,4.9,37.2,14.2
	C129.2,48.8,136,64.1,136,80c0,19.1-9.6,36.7-25.8,47.1c-8.5,5.4-13.6,14.7-14.1,24.9H88v-49.5c9.3-3.3,16-12.1,16-22.5
	c0-13.2-10.8-24-24-24S56,66.8,56,80c0,10.4,6.7,19.2,16,22.5V152h-8.1C63.3,141.7,58.2,132.5,49.9,127.2z M72,80c0-4.4,3.6-8,8-8
	s8,3.6,8,8s-3.6,8-8,8S72,84.4,72,80z M64,168h32c0,8.8-7.2,16-16,16S64,176.8,64,168z M248,232h16v224h-16V232z M184,264h16v192
	h-16V264z M120,296h16v160h-16V296z M407.7,133.2c5.2-5.8,8.3-13.3,8.3-21.2c0-17.6-14.4-32-32-32s-32,14.4-32,32
	c0,8,3,15.4,8.3,21.2c-0.1,0.9-0.3,1.8-0.3,2.8v17.4c-14.5-8.5-24-24.1-24-41.4c0-26.5,21.5-48,48-48s48,21.5,48,48
	c0,17.2-9.5,32.9-24,41.4V136C408,135.1,407.8,134.2,407.7,133.2z M369,117.4c-0.6-1.7-1-3.5-1-5.4c0-8.8,7.2-16,16-16s16,7.2,16,16
	c0,1.9-0.4,3.7-1,5.4c-4.1-3.3-9.3-5.4-15-5.4S373.2,114.1,369,117.4z M359.9,188.2l-1.8-0.6c-3.1-1-6.1-2.3-9.2-3.8l-3.5-1.7
	l-10.7,5.1l-25.9-25.9l5.1-10.7l-1.7-3.5c-1.5-3-2.8-6.1-3.8-9.2l-1.2-3.7l-11.1-3.9V93.7l11.1-3.9l1.2-3.7c1-3.1,2.3-6.1,3.8-9.2
	l1.7-3.5l-5.1-10.7l25.9-25.9l10.7,5.1l3.5-1.7c3-1.5,6.1-2.8,9.2-3.8l3.7-1.2l3.9-11.1h36.7l3.9,11.1l3.7,1.2
	c3.1,1,6.1,2.3,9.2,3.8l3.5,1.7l10.7-5.1l25.9,25.9l-5.1,10.7l1.7,3.5c1.5,3,2.8,6.1,3.8,9.2l1.2,3.7l11.1,3.9v36.7l-11.1,3.9
	l-1.2,3.7c-1,3.1-2.3,6.1-3.8,9.2l-1.7,3.5l5.1,10.7l-25.9,25.9l-10.7-5.1l-3.5,1.7c-3,1.5-6.1,2.8-9.2,3.8l-1.8,0.6l-0.1,0.1v-17.2
	c23.8-9.7,40-33.1,40-59.1c0-35.3-28.7-64-64-64s-64,28.7-64,64c0,26,16.2,49.4,40,59.1v17.2L359.9,188.2z M332.2,366.2
	c-2.7-5.5-4.2-11.6-4.2-17.8v-32.9c0-9-2.1-18-6.2-26.1l-9.3-18.6c-0.3-0.7-0.5-1.4-0.5-2.2c0-2.7,2.2-4.9,5.7-4.9
	c23.3,0,42.3,19,42.3,42.3v13.7v16h16v-16V306V136c0-4.4,3.6-8,8-8s8,3.6,8,8v120v32h16v-32c0-4.4,3.6-8,8-8s8,3.6,8,8v32h16v-32
	c0-4.4,3.6-8,8-8s8,3.6,8,8v16v16h16v-16c0-4.4,3.6-8,8-8s8,3.6,8,8v88c0,8.6-2.8,17.1-8,24l-16,21.3V424H352v-17.9L332.2,366.2z
	 M480,488H336v-40c0-4.4,3.6-8,8-8h128c4.4,0,8,3.6,8,8V488z"/>
</svg>
