<?xml version="1.0" encoding="utf-8"?>
<!-- Generator: Adobe Illustrator 24.1.1, SVG Export Plug-In . SVG Version: 6.00 Build 0)  -->
<svg version="1.1" id="Layer_5" xmlns="http://www.w3.org/2000/svg" xmlns:xlink="http://www.w3.org/1999/xlink" x="0px" y="0px"
	 viewBox="0 0 512 512" style="enable-background:new 0 0 512 512;" xml:space="preserve">
<style type="text/css">
	.st0{fill:#A7413F;}
</style>
<g>
	<path class="st0" d="M256,168c-44.1,0-80,35.9-80,80s35.9,80,80,80s80-35.9,80-80S300.1,168,256,168z M256,312
		c-35.3,0-64-28.7-64-64s28.7-64,64-64s64,28.7,64,64S291.3,312,256,312z"/>
	<path class="st0" d="M256,200c-26.5,0-48,21.5-48,48s21.5,48,48,48s48-21.5,48-48S282.5,200,256,200z M256,280
		c-17.6,0-32-14.4-32-32s14.4-32,32-32s32,14.4,32,32S273.6,280,256,280z"/>
	<path class="st0" d="M498.3,79l-63-63C425,5.7,407,5.7,396.7,16l-63,63c-3.6,3.6-5.7,8.5-5.7,13.7c0,10.6,8.7,19.3,19.3,19.3H368
		v21.7l-19.9-19.9l-19.7,9.8c-11.2-6.6-23.2-11.5-35.7-14.8l-7-20.8h-59.5l-7,20.8c-12.5,3.3-24.5,8.3-35.7,14.8l-19.7-9.8
		L144,133.7V112h20.7c10.6,0,19.3-8.7,19.3-19.3c0-5.2-2-10-5.7-13.7l-63-63C105,5.7,87,5.7,76.7,16l-63,63C10,82.7,8,87.5,8,92.7
		c0,10.6,8.7,19.3,19.3,19.3H48v392h96V362.3l19.9,19.9l19.4-9.7c10.5,7.9,16.7,19.8,16.7,32.5v4.5c-9.3,3.3-16,12.1-16,22.5
		c0,10.6,6.9,19.5,16.4,22.7c3.3,27.7,26.9,49.3,55.6,49.3s52.3-21.6,55.6-49.3c9.5-3.2,16.4-12.1,16.4-22.7
		c0-10.4-6.7-19.2-16-22.5V405c0-12.6,6.1-24.5,16.7-32.5l19.4,9.7l19.9-19.9V504h96V112h20.7c10.6,0,19.3-8.7,19.3-19.3
		C504,87.5,502,82.7,498.3,79L498.3,79z M128,488H64V96H27.3c-1.8,0-3.3-1.5-3.3-3.3c0-0.9,0.4-1.7,1-2.3l63-63
		c4.2-4.2,11.8-4.2,16,0l63,63c0.6,0.6,1,1.5,1,2.3c0,1.8-1.5,3.3-3.3,3.3H128v53.7l-6.2,6.2l9.8,19.7
		c-6.6,11.2-11.5,23.2-14.8,35.7l-20.8,7v59.5l20.8,7c3.3,12.5,8.3,24.5,14.8,35.7l-9.8,19.7l6.2,6.2L128,488z M256,488
		c-19.3,0-35.5-13.8-39.2-32h78.4C291.5,474.2,275.3,488,256,488z M304,440h-96c-4.4,0-8-3.6-8-8s3.6-8,8-8h96c4.4,0,8,3.6,8,8
		S308.4,440,304,440z M256,344c-52.9,0-96-43.1-96-96s43.1-96,96-96s96,43.1,96,96S308.9,344,256,344z M256,360
		c4.4,0,8.8-0.3,13.1-0.8l-4.4,48.8h-17.4l-4.4-48.8C247.2,359.7,251.6,360,256,360L256,360z M344.9,362.7l-13.3-6.7l-4.2-1.9
		l-3.8,2.4C306.3,367.3,296,385.4,296,405v3h-15.2l4.7-52.1C333,342.9,368,299.5,368,248c0-61.8-50.2-112-112-112s-112,50.2-112,112
		c0,51.5,35,94.9,82.5,107.9l4.7,52.1H216v-3c0-19.6-10.3-37.7-27.8-48.6l-3.8-2.4l-17.4,8.7l-25.8-25.8l8.7-17.3l-2.4-3.8
		c-7.6-12.1-13-25.2-16.2-39l-1-4.4l-18.4-6.1v-36.5l18.4-6.1l1-4.4c3.2-13.8,8.6-26.9,16.2-39l2.4-3.8l-8.7-17.3l25.8-25.8
		l17.3,8.7l3.8-2.4c12.1-7.6,25.2-13,39-16.2l4.4-1l6.1-18.4h36.5l6.1,18.4l4.4,1c13.8,3.2,26.9,8.6,39,16.2l3.8,2.4l17.3-8.7
		l25.8,25.8l-8.7,17.3l2.4,3.8c7.6,12.1,13,25.2,16.2,39l1,4.4l18.4,6.1v36.5l-18.4,6.1l-1,4.4c-3.2,13.8-8.6,26.9-16.2,39l-2.4,3.8
		l8.7,17.3L344.9,362.7z M484.7,96H448v392h-64V346.3l6.2-6.2l-9.8-19.7c6.6-11.2,11.5-23.2,14.8-35.7l20.8-7v-59.5l-20.8-7
		c-3.3-12.5-8.3-24.5-14.8-35.7l9.8-19.7l-6.2-6.2V96h-36.7c-1.8,0-3.3-1.5-3.3-3.3c0-0.9,0.4-1.7,1-2.3l63-63
		c4.2-4.2,11.8-4.2,16,0l63,63c0.6,0.6,1,1.5,1,2.3C488,94.5,486.5,96,484.7,96L484.7,96z"/>
</g>
</svg>
