<?xml version="1.0" encoding="utf-8"?>
<!-- Generator: Adobe Illustrator 24.1.1, SVG Export Plug-In . SVG Version: 6.00 Build 0)  -->
<svg version="1.1" id="Layer_3" xmlns="http://www.w3.org/2000/svg" xmlns:xlink="http://www.w3.org/1999/xlink" x="0px" y="0px"
	 viewBox="0 0 512 512" style="enable-background:new 0 0 512 512;" xml:space="preserve">
<style type="text/css">
	.st0{fill:#A7413F;}
</style>
<path class="st0" d="M451,240.2c-5.5,6.9-15.1,9.5-23.3,6.5l-8.7-3.2c-10.7-3.9-21.2-8.6-31.3-13.9l-7.5,14.2
	c10.7,5.6,21.8,10.6,33.2,14.8l8.7,3.2c4.1,1.5,8.3,2.3,12.7,2.3c11.2,0,21.6-5,28.7-13.8l4.2-5.2l-12.5-10L451,240.2z"/>
<path class="st0" d="M489.5,209.1L445.4,176c-6.9-5.2-15.4-8-24.1-8c-10.7,0-20.8,4.2-28.4,11.7l-6.1,6.1c-7.9,7.9-21.7,7.9-29.7,0
	l-31-31c-4-4-6.1-9.2-6.1-14.8s2.2-10.9,6.1-14.8l6.1-6.1c7.6-7.6,11.7-17.6,11.7-28.4c0-8.6-2.8-17.2-8-24.1l-33.1-44.2
	c-6.8-9.1-17.6-14.5-29-14.5c-8.2,0-16.2,2.8-22.6,7.9l-9.5,7.6C225.4,36.6,216,56.2,216,77.2v1c0,7.4,1.2,14.7,3.5,21.7
	c16.3,48.9,44.2,91.9,80.8,126l-2.1,6.2H133.8l-10.5-31.6c-3.3-9.8-12.4-16.4-22.8-16.4H80c-13.2,0-24,10.8-24,24v104h-8
	c-22.1,0-40,17.9-40,40v96c0,30.9,25.1,56,56,56h304c28.2,0,51.5-20.9,55.4-48H448c13.2,0,24-10.8,24-24v-147
	c6.2-4,11.8-8.9,16.5-14.8l7.6-9.5c5.1-6.4,7.9-14.4,7.9-22.6C504,226.8,498.6,215.9,489.5,209.1L489.5,209.1z M309.8,248l3.6-10.7
	c14.4,12,30.1,22.6,46.7,31.8V400c0,22.1-17.9,40-40,40h-46.6c32.6-19.6,54.6-55.2,54.6-96s-22-76.4-54.6-96H309.8z M216,440
	c-52.9,0-96-43.1-96-96s43.1-96,96-96s96,43.1,96,96S268.9,440,216,440z M72,208c0-4.4,3.6-8,8-8h20.5c3.4,0,6.5,2.2,7.6,5.5
	l14.2,42.5h36.4C126,267.6,104,303.2,104,344s22,76.4,54.6,96H112c-22.1,0-40-17.9-40-40V208z M408,448c0,22.1-17.9,40-40,40H64
	c-22.1,0-40-17.9-40-40v-96c0-13.2,10.8-24,24-24h8v72c0,30.9,25.1,56,56,56h208c30.9,0,56-25.1,56-56v-72h8c13.2,0,24,10.8,24,24
	V448z M456,432c0,4.4-3.6,8-8,8h-24v-88c0-22.1-17.9-40-40-40h-8v-34.7c8.6,4.1,17.4,7.9,26.4,11.3l8.7,3.2
	c7.6,2.8,15.6,4.2,23.7,4.2c7.3,0,14.4-1.2,21.2-3.4L456,432L456,432z M483.6,250.7l-7.6,9.5c-10.1,12.6-25.1,19.8-41.2,19.8
	c-6.2,0-12.4-1.1-18.2-3.2l-8.7-3.2c-82.3-30.3-145.5-95.5-173.2-178.8c-1.8-5.4-2.7-11-2.7-16.7v-1c0-16.1,7.2-31.1,19.8-41.2
	l9.5-7.6c3.6-2.9,8.1-4.4,12.6-4.4c6.3,0,12.4,3,16.2,8.1l33.1,44.2c3.1,4.1,4.8,9.3,4.8,14.5c0,6.3-2.6,12.6-7.1,17l-6.1,6.1
	c-7,7-10.8,16.3-10.8,26.1s3.8,19.2,10.8,26.1l31,31c7,7,16.3,10.8,26.1,10.8S391.1,204,398,197l6.1-6.1c8.1-8.2,22.3-9.2,31.5-2.2
	l44.2,33.1c5.1,3.8,8.1,9.8,8.1,16.2C488,242.7,486.4,247.2,483.6,250.7L483.6,250.7z"/>
<path class="st0" d="M216,296c-26.5,0-48,21.5-48,48s21.5,48,48,48s48-21.5,48-48S242.5,296,216,296z M216,376
	c-17.6,0-32-14.4-32-32s14.4-32,32-32s32,14.4,32,32S233.6,376,216,376z"/>
<circle class="st0" cx="216" cy="272" r="8"/>
<path class="st0" d="M170.7,298.7c3.1-3.1,3.1-8.2,0-11.3c-3.1-3.1-8.2-3.1-11.3,0s-3.1,8.2,0,11.3
	C162.6,301.9,167.6,301.9,170.7,298.7z"/>
<circle class="st0" cx="144" cy="344" r="8"/>
<path class="st0" d="M159.4,389.3c-3.1,3.1-3.1,8.2,0,11.3c3.1,3.1,8.2,3.1,11.3,0s3.1-8.2,0-11.3
	C167.6,386.1,162.6,386.1,159.4,389.3z"/>
<circle class="st0" cx="216" cy="416" r="8"/>
<path class="st0" d="M261.3,389.3c-3.1,3.1-3.1,8.2,0,11.3s8.2,3.1,11.3,0c3.1-3.1,3.1-8.2,0-11.3
	C269.4,386.1,264.4,386.1,261.3,389.3z"/>
<circle class="st0" cx="288" cy="344" r="8"/>
<path class="st0" d="M261.3,287.4c-3.1,3.1-3.1,8.2,0,11.3c3.1,3.1,8.2,3.1,11.3,0c3.1-3.1,3.1-8.2,0-11.3
	C269.4,284.3,264.4,284.3,261.3,287.4z"/>
<path class="st0" d="M56,448v-8H40v8c0,13.2,10.8,24,24,24h8v-16h-8C59.6,456,56,452.4,56,448z"/>
<path class="st0" d="M216,320c-13.2,0-24,10.8-24,24s10.8,24,24,24s24-10.8,24-24S229.2,320,216,320z M216,352c-4.4,0-8-3.6-8-8
	s3.6-8,8-8s8,3.6,8,8S220.4,352,216,352z"/>
</svg>
