<?xml version="1.0" encoding="utf-8"?>
<!-- Generator: Adobe Illustrator 24.1.1, SVG Export Plug-In . SVG Version: 6.00 Build 0)  -->
<svg version="1.1" id="Layer_5" xmlns="http://www.w3.org/2000/svg" xmlns:xlink="http://www.w3.org/1999/xlink" x="0px" y="0px"
	 viewBox="0 0 512 512" style="enable-background:new 0 0 512 512;" xml:space="preserve">
<style type="text/css">
	.st0{fill:#A7413F;}
</style>
<g>
	<path class="st0" d="M176,343.2c0-14.7-10.3-27-24-30.3V296h-16v16.9c-13.7,3.3-24,15.6-24,30.3c0,13.5,8.6,25.4,21.4,29.6
		l16.2,5.4c6.2,2.1,10.4,7.9,10.4,14.5c0,8.4-6.8,15.2-15.2,15.2h-1.5c-8.4,0-15.2-6.8-15.2-15.2V384h-16v8.8
		c0,14.7,10.3,27,24,30.3V440h16v-16.9c13.7-3.3,24-15.6,24-30.3c0-13.5-8.6-25.4-21.4-29.6l-16.2-5.4c-6.2-2.1-10.4-7.9-10.4-14.5
		c0-8.4,6.8-15.2,15.2-15.2h1.5c8.4,0,15.2,6.8,15.2,15.2v0.8L176,343.2z"/>
	<path class="st0" d="M144,264c-57.3,0-104,46.7-104,104s46.7,104,104,104s104-46.7,104-104S201.3,264,144,264z M144,456
		c-48.5,0-88-39.5-88-88s39.5-88,88-88s88,39.5,88,88S192.5,456,144,456z"/>
	<path class="st0" d="M360,176v-8h56c48.5,0,88-39.5,88-88v-8h-72c-29.8,0-56.1,14.9-72,37.6V104v-8c0-48.5-39.5-88-88-88h-72v8
		c0,48.5,39.5,88,88,88h56v32.9c-10.2-10.4-24.3-16.9-40-16.9h-40v8c0,30.9,25.1,56,56,56h24v42.8c-13.2-16.4-33.4-26.8-56-26.8h-56
		v8c0,39.7,32.3,72,72,72h40v16.1c-30,0.9-58.5,6.9-76.2,15.9C246.4,264.9,199,232,144,232C69,232,8,293,8,368s61,136,136,136
		c41.7,0,79-18.9,104-48.5v8.5c0,27.6,60.8,40,104,40s104-12.4,104-40V336c0-25.9-53.7-38.4-96-39.9V280h56c48.5,0,88-39.5,88-88v-8
		h-72c-29.8,0-56.1,14.9-72,37.6V184V176z M432,88h55.6c-4,36-34.6,64-71.6,64h-55.6C364.4,116,395,88,432,88z M288,88
		c-37,0-67.6-28-71.6-64H272c37,0,67.6,28,71.6,64H288z M320,168c-19.3,0-35.5-13.8-39.2-32H304c19.3,0,35.5,13.8,39.2,32H320z
		 M304,264c-28.2,0-51.5-20.9-55.4-48H288c28.2,0,51.5,20.9,55.4,48H304z M344,423.8c-11-0.4-21.9-1.5-32-3.2v-15.8
		c10.2,1.6,21,2.6,32,3V423.8z M296,417.2c-8.9-2.3-16.6-5.1-22.3-8.3c1.3-4.2,2.5-8.6,3.4-13c5.7,2.2,12.1,4.1,18.9,5.7L296,417.2
		L296,417.2z M264,431.9c1.4-2.6,2.6-5.2,3.8-7.9c7.6,3.9,17.3,7.2,28.2,9.8v15.5c-20-5.2-32-12.4-32-17.3V431.9z M312,436.9
		c10.2,1.6,21,2.6,32,3v16c-11.7-0.4-22.4-1.5-32-3.2V436.9z M344,471.9v16c-11.7-0.4-22.4-1.5-32-3.2v-15.9
		C322.7,470.5,333.7,471.5,344,471.9z M360,471.9c10.3-0.3,21.3-1.4,32-3.1v15.9c-9.6,1.6-20.3,2.8-32,3.2V471.9z M360,455.8v-16
		c10.3-0.3,21.3-1.4,32-3.1v15.9C382.4,454.3,371.7,455.5,360,455.8z M360,423.8v-16c10.3-0.3,21.3-1.4,32-3.1v15.9
		C382.4,422.3,371.7,423.5,360,423.8z M360,391.8v-16c10.3-0.3,21.3-1.4,32-3.1v15.9C382.4,390.3,371.7,391.5,360,391.8z M344,391.8
		c-11-0.4-21.9-1.5-32-3.2v-15.8c10.2,1.6,21,2.6,32,3V391.8z M296,385.2c-6.2-1.6-11.8-3.5-16.6-5.6c0.3-3.8,0.6-7.7,0.6-11.7
		c0-1-0.1-2-0.2-3c5,1.8,10.4,3.4,16.2,4.8V385.2z M144,488c-66.2,0-120-53.8-120-120s53.8-120,120-120s120,53.8,120,120
		S210.2,488,144,488z M264,464v-10.2c8.5,5,19.7,8.9,32,11.8v15.6C276,476,264,468.8,264,464z M408,481.3v-15.6
		c12.3-2.9,23.5-6.8,32-11.8V464C440,468.8,428,476,408,481.3z M408,449.3v-15.6c12.3-2.9,23.5-6.8,32-11.8V432
		C440,436.8,428,444,408,449.3z M408,417.3v-15.6c12.3-2.9,23.5-6.8,32-11.8V400C440,404.8,428,412,408,417.3z M408,385.3v-15.6
		c12.3-2.9,23.5-6.8,32-11.8V368C440,372.8,428,380,408,385.3z M440,336c0,8.4-36.3,24-88,24c-28.1,0-56.3-5-73.8-12.9
		c-1.1-6.9-2.5-13.6-4.6-20.1c14.8-8.1,42.3-13.9,70.3-14.9V344h16v-31.8C407.4,313.6,440,328,440,336L440,336z M432,200h55.6
		c-4,36-34.6,64-71.6,64h-55.6C364.4,228,395,200,432,200z"/>
</g>
</svg>
