<?xml version="1.0" encoding="utf-8"?>
<!-- Generator: Adobe Illustrator 24.1.1, SVG Export Plug-In . SVG Version: 6.00 Build 0)  -->
<svg version="1.1" id="Layer_1" xmlns="http://www.w3.org/2000/svg" xmlns:xlink="http://www.w3.org/1999/xlink" x="0px" y="0px"
	 viewBox="0 0 1379.4 583.3" style="enable-background:new 0 0 1379.4 583.3;" xml:space="preserve">
<style type="text/css">
	.st0{fill:#2D304D;}
	.st1{fill:#AC3C37;}
	.st2{fill:#A4AFC9;}
	.st3{fill:none;stroke:#AC3C37;stroke-width:2.7778;stroke-miterlimit:10;}
	.st4{fill:none;stroke:#A4AFC9;stroke-width:1.7361;stroke-miterlimit:10;}
	.st5{fill:none;stroke:#AC3C37;stroke-width:3.9418;stroke-miterlimit:10;}
	.st6{fill:none;stroke:#A4AFC9;stroke-width:5.0032;stroke-miterlimit:10;}
	.st7{fill:none;stroke:#2D304D;stroke-width:3.9418;stroke-miterlimit:10;}
	.st8{fill:none;stroke:#F2EFEF;stroke-width:3.9418;stroke-miterlimit:10;}
	.st9{fill:#F2EFEF;}
	.st10{fill:none;stroke:#F2EFEF;stroke-width:2.7778;stroke-miterlimit:10;}
	.st11{fill:none;stroke:#F2EFEF;stroke-width:4.5799;stroke-linecap:round;stroke-linejoin:round;stroke-miterlimit:10;}
	.st12{fill:none;stroke:#2D304D;stroke-width:3.1211;stroke-miterlimit:10;}
	.st13{fill:none;stroke:#A4AFC9;stroke-width:0.3472;stroke-miterlimit:10;}
	.st14{fill:none;stroke:#AC3C37;stroke-width:3.5453;stroke-miterlimit:10;}
	.st15{fill:none;stroke:#A4AFC9;stroke-width:4.5;stroke-miterlimit:10;}
	.st16{fill:none;stroke:#2D304D;stroke-width:3.5453;stroke-miterlimit:10;}
	.st17{fill:none;stroke:#F2EFEF;stroke-width:3.5453;stroke-miterlimit:10;}
	.st18{fill:none;stroke:#F2EFEF;stroke-width:4.1192;stroke-linecap:round;stroke-linejoin:round;stroke-miterlimit:10;}
	.st19{fill:none;stroke:#2D304D;stroke-width:2.8072;stroke-miterlimit:10;}
	.st20{fill:none;stroke:#F2EFEF;stroke-width:2.4537;stroke-linecap:round;stroke-linejoin:round;stroke-miterlimit:10;}
	.st21{fill:none;stroke:#EEEAE9;stroke-width:2.4537;stroke-linecap:round;stroke-linejoin:round;stroke-miterlimit:10;}
	.st22{fill:none;stroke:#E9E4E3;stroke-width:2.4537;stroke-linecap:round;stroke-linejoin:round;stroke-miterlimit:10;}
	.st23{fill:none;stroke:#E5DFDD;stroke-width:2.4537;stroke-linecap:round;stroke-linejoin:round;stroke-miterlimit:10;}
	.st24{fill:none;stroke:#BCBCBB;stroke-width:21.2549;stroke-linecap:round;stroke-linejoin:round;stroke-miterlimit:10;}
	.st25{fill:none;stroke:#BCBCBB;stroke-width:44.3791;stroke-linecap:round;stroke-linejoin:round;stroke-miterlimit:10;}
	.st26{fill:#D1D0D1;}
	.st27{fill:none;stroke:#A4AFC9;stroke-width:3.2084;stroke-linecap:round;stroke-linejoin:round;stroke-miterlimit:10;}
	.st28{fill:none;stroke:#A4AFC9;stroke-width:2.4537;stroke-linecap:round;stroke-linejoin:round;stroke-miterlimit:10;}
	.st29{fill:none;stroke:#2D304D;stroke-width:2.4537;stroke-linecap:round;stroke-linejoin:round;stroke-miterlimit:10;}
</style>
<g>
	<path class="st2" d="M192.7,448.3c-6.4,6.4-17,6.4-23.4,0L46.4,325.4c-6.4-6.4-6.4-17,0-23.4l122.9-122.9c6.4-6.4,17-6.4,23.4,0
		L315.6,302c6.4,6.4,6.4,17,0,23.4L192.7,448.3z"/>
</g>
<polygon class="st24" points="181.9,341.4 269.7,429 327.5,371.1 181.8,225.6 36.3,371.4 94.3,429.2 "/>
<g>
	<path class="st2" d="M496.1,328.3h-30.8c3.5,23.8,25.2,38.9,52.9,38.9c19.6,0,42.7-3.9,57.8-17.9h1.8V364
		c0,24.2-16.5,42.7-68.3,42.7c-46.9,0-92.8-37.1-92.8-94.9c0-63,38.5-102.6,92.5-102.6c39.2,0,75.6,28,75.6,73.2
		C584.7,317.1,558.5,328.3,496.1,328.3z M504.9,248.5c-22.8,0-38.5,18.6-39.6,40.3l-0.3,6.3h21c44.5,0,54.6-4.9,54.6-18.2
		C540.6,257.9,526.6,248.5,504.9,248.5z"/>
	<path class="st2" d="M704.1,406.8c-46.6,0-83.3-30.8-83.3-85.8V213.4h8.8c27,0,38.9,11.6,38.9,33.6v69.3
		c0,34.7,16.8,48.7,38.2,48.7c19.3,0,32.9-13.3,32.9-45.5V213.4h8.4c27.3,0,38.9,11.6,38.9,33.6v70.7
		C786.8,376.6,759.1,406.8,704.1,406.8z"/>
	<path class="st2" d="M939.5,259.3c-7-2.8-15.1-5.6-27.3-5.6c-21,0-32.6,11.6-32.6,40.3v108.6h-13c-21,0-34.3-10.5-34.3-30.1v-86.9
		c0-37.8,20-73.9,69.7-73.9c29.1,0,39.2,16.5,39.2,30.8v16.8H939.5z"/>
	<path class="st2" d="M1052.2,209.2c56.7,0,89.3,45.5,89.3,95.6c0,56.7-32.6,101.9-93.5,101.9c-56.7,0-89.3-45.2-89.3-95.3
		C958.7,254.8,991.3,209.2,1052.2,209.2z M1048,251.3c-27,0-40.6,22.4-40.6,53.6c0,37.5,13.7,59.9,44.8,59.9
		c27.3,0,40.6-22.4,40.6-53.2C1092.9,273.7,1078.9,251.3,1048,251.3z"/>
	<path class="st2" d="M1332.1,402.6c-21,0-34.3-13.3-34.3-30.8v-74.9c0-31.9-14-45.9-38.2-45.9c-20.3,0-34.3,15.4-34.3,42.4v109.3
		h-14c-20,0-32.9-13.3-32.9-30.8v-81.6c0-39.9,26.3-80.9,85.1-80.9c44.5,0,81.3,29.8,81.3,83.4v110H1332.1z"/>
</g>
</svg>
