<?xml version="1.0" encoding="utf-8"?>
<!-- Generator: Adobe Illustrator 24.1.1, SVG Export Plug-In . SVG Version: 6.00 Build 0)  -->
<svg version="1.1" id="Layer_1" xmlns="http://www.w3.org/2000/svg" xmlns:xlink="http://www.w3.org/1999/xlink" x="0px" y="0px"
	 viewBox="0 0 496 496" style="enable-background:new 0 0 496 496;" xml:space="preserve">
<style type="text/css">
	.st0{fill:#A7413F;}
</style>
<g>
	<g>
		<path class="st0" d="M461.8,112h-34.2C394.9,45.7,326.7,0,248,0S101.1,45.7,68.5,112H42.8L0,206.3V496h496V214.7L461.8,112z
			 M450.2,128l25.9,77.7l-29.5,17.2c0.9-7.6,1.3-15.2,1.3-22.8c0-25.4-4.8-49.6-13.5-72H450.2z M431.8,192H416v16h15.8
			c-0.4,8.5-1.3,16.9-2.8,25.2l-84.6,49.4c-1.9-0.5-3.9-0.8-5.8-1.2c8.1-23.8,12.5-48.4,13.3-73.3H400v-16h-48.2
			c-0.9-27.6-6.1-52.6-13.7-74.7c31.8-7.5,54-16.9,62.1-20.6C418.9,124.1,430.3,156.8,431.8,192z M390.4,83.6
			c-9.6,4.1-30,12.1-58,18.6c-16-38.7-38.5-67.1-53.9-83.6C323.3,26.1,362.7,49.8,390.4,83.6z M256,18.8
			c11.6,10.9,40.4,41.1,60.2,86.8c-18,3.4-38.3,5.8-60.2,6.3V18.8z M256,127.8c24.3-0.5,46.7-3.3,66.2-7
			c7.5,21.1,12.8,44.9,13.7,71.2H256V127.8z M256,208h79.8c-0.8,23.8-5.2,47.3-13.2,70.1c-20.8-3.6-43.2-5.5-66.6-5.8V208z
			 M256,288.2c21.3,0.4,41.6,2,60.7,5.2c-1,2.4-2,4.8-3.1,7.1l-19.9,11.6c-10.9-8.7-23.9-14.1-37.7-15.6L256,288.2L256,288.2z
			 M240,18.8v93.1c-23.2-0.4-43.3-2.4-60.6-5.2C199.1,60.5,228.4,29.8,240,18.8z M173.8,279.3c-8.2-23.2-12.8-47-13.6-71.3H240v64.3
			C218,272.7,195.8,275,173.8,279.3z M240,288.3v8.2c-13.7,1.5-26.8,6.9-37.7,15.6l-19.9-11.6c-0.9-2-1.7-4-2.6-6
			C199.8,290.7,220,288.7,240,288.3z M160.2,192c0.9-25.8,6-49.3,13.3-70.1c18.8,3.2,40.9,5.5,66.5,5.9V192H160.2z M217.6,18.6
			c-15.6,16.7-38.4,45.6-54.5,85c-30.5-6.6-49.6-15.2-57.8-19.5C132.9,50,172.5,26.1,217.6,18.6z M95.6,97
			c8,4.5,28.2,14.3,61.8,21.8C150,140.5,145,165,144.2,192h-80C65.7,156.9,77,124.4,95.6,97z M158.1,282.8c-1.4,0.3-2.8,0.6-4.3,1
			L67,233.2c-1.5-8.3-2.5-16.7-2.8-25.2h80C145,233.5,149.6,258.5,158.1,282.8z M53.2,128h8.3C52.8,150.4,48,174.6,48,200
			c0,7.6,0.5,15.3,1.3,22.8l-31.1-18.1L53.2,128z M16,221.9L189.3,323L16,470.7V221.9z M29.7,480l181.2-154.4
			c10.3-8.8,23.5-13.6,37.1-13.6c13.6,0,26.7,4.8,37.1,13.7L466.3,480H29.7z M480,470.7L306.7,323L480,221.9V470.7z"/>
	</g>
</g>
</svg>
