<?xml version="1.0" encoding="utf-8"?>
<!-- Generator: Adobe Illustrator 24.1.1, SVG Export Plug-In . SVG Version: 6.00 Build 0)  -->
<svg version="1.1" id="Layer_5" xmlns="http://www.w3.org/2000/svg" xmlns:xlink="http://www.w3.org/1999/xlink" x="0px" y="0px"
	 viewBox="0 0 512 512" style="enable-background:new 0 0 512 512;" xml:space="preserve">
<style type="text/css">
	.st0{fill:#A7413F;}
</style>
<g>
	<path class="st0" d="M360,344c30.9,0,56-25.1,56-56s-25.1-56-56-56s-56,25.1-56,56S329.1,344,360,344z M360,248
		c22.1,0,40,17.9,40,40s-17.9,40-40,40s-40-17.9-40-40S337.9,248,360,248z"/>
	<path class="st0" d="M360,312c13.2,0,24-10.8,24-24s-10.8-24-24-24s-24,10.8-24,24S346.8,312,360,312z M360,280c4.4,0,8,3.6,8,8
		s-3.6,8-8,8s-8-3.6-8-8S355.6,280,360,280z"/>
	<path class="st0" d="M408.9,416.8l5.5-8.8h91.3l-10.5-52.3l-48.2-40.2c0.5-6,0.9-12,0.9-18c0-0.5,0-1-0.1-1.5h0.1V32
		c0-13.2-10.8-24-24-24H32C18.8,8,8,18.8,8,32v336c0,13.2,10.8,24,24,24h185.4l-3.2,16h91.3l5.5,8.8l-3.1,7.8
		c-8,20.1-1.6,43.2,15.8,56.2l15.1,11.4l15.3-30.6c8.9,9.3,13.8,21.5,13.8,34.5v8h19.8l13.3-16.6c14.8-18.5,18.5-43.7,9.7-65.7
		L408.9,416.8z M324.4,408l-8.8-14c-3.6-5.8-6.8-11.8-9.8-18h108.2c-2.9,6.1-6.1,12.2-9.8,18l-8.8,14H324.4z M307.4,216h105.2
		c12.7,25.2,19.4,53,19.4,81.5c0,21.4-3.8,42.6-11.1,62.5H299.1c-7.3-19.9-11.1-41-11.1-62.5C288,269,294.7,241.2,307.4,216z
		 M316.5,200c0.7-1.1,1.4-2.3,2.1-3.4l23.2-34.8c4.1-6.1,10.9-9.7,18.2-9.7s14.2,3.6,18.2,9.8l23.2,34.8c0.7,1.1,1.4,2.3,2.1,3.4
		L316.5,200L316.5,200z M480.7,364.3l5.5,27.7h-62.3c9.9-18.2,16.7-37.7,20.5-57.9L480.7,364.3z M32,24h392c4.4,0,8,3.6,8,8v72H24
		V32C24,27.6,27.6,24,32,24z M220.6,376H32c-4.4,0-8-3.6-8-8V120h408v99.8c-4.8-11.1-10.4-21.9-17.2-32.1l-23.2-34.8
		c-7-10.6-18.8-16.9-31.5-16.9s-24.5,6.3-31.5,16.9l-23.2,34.8c-21.8,32.6-33.3,70.6-33.3,109.8c0,6,0.4,12,0.9,18l-48.2,40.2
		L220.6,376z M239.3,364.3l36.2-30.2c3.8,20.2,10.7,39.7,20.5,57.9h-62.3L239.3,364.3z M388.7,477.4l-5.7,7.1
		c-2.3-13.2-8.6-25.4-18.3-35.1l-14.9-14.9l-16.7,33.4c-11.4-8.7-15.7-24-10.3-37.3l2.6-6.5h69.2l1.4,3.6
		C402.7,444.3,399.9,463.3,388.7,477.4L388.7,477.4z"/>
	<path class="st0" d="M88,40H40v48h48V40z M72,72H56V56h16V72z"/>
	<path class="st0" d="M152,40h-48v48h48V40z M136,72h-16V56h16V72z"/>
	<path class="st0" d="M216,40h-48v48h48V40z M200,72h-16V56h16V72z"/>
	<path class="st0" d="M232,136h-48v160h-16v-96h-48v96h-16v-64H56v64H40v16h208v-16h-16V136z M200,152h16v144h-16V152z M136,216h16
		v80h-16V216z M72,248h16v48H72V248z"/>
	<path class="st0" d="M40,136h16v16H40V136z"/>
	<path class="st0" d="M72,136h80v16H72V136z"/>
	<path class="st0" d="M40,168h16v16H40V168z"/>
	<path class="st0" d="M72,168h80v16H72V168z"/>
</g>
</svg>
